<?xml version="1.0" ?>
<svg viewBox="0 0 48 48" xmlns="http://www.w3.org/2000/svg"><path fill="none" d="m0,0l48,0l0,48l-48,0l0,-48z"/><path transform="rotate(90, 24, 24)" d="m30,42l4,0l0,-4l-4,0l0,4zm8,-24l4,0l0,-4l-4,0l0,4zm-32,-8l0,28c0,2.209999 1.79,4 4,4l8,0l0,-4l-8,0l0,-28l8,0l0,-4l-8,0c-2.21,0 -4,1.79 -4,4zm32,-4l0,4l4,0c0,-2.21 -1.790001,-4 -4,-4zm-16,40l4,0l0,-44l-4,0l0,44zm16,-12l4,0l0,-4l-4,0l0,4zm-8,-24l4,0l0,-4l-4,0l0,4zm8,16l4,0l0,-4l-4,0l0,4zm0,16c2.209999,0 4,-1.790001 4,-4l-4,0l0,4z"/></svg>